<svg data-logo="logo" xmlns="http://www.w3.org/2000/svg" viewBox="0 0 188 43">
        <g style="opacity: 1;" id="logogram" transform="translate(0, 1.5) rotate(0)"><path d="M24 0H16V12.0632C15.9663 14.2434 14.1885 16 12.0005 16H0V24H8.68629C10.808 24 12.8429 23.1571 14.3431 21.6569L21.6569 14.3431C23.1571 12.8429 24 10.808 24 8.68629V0Z" fill="url(#paint0_linear_7697_8782)"></path><path d="M16 40H24V27.9368C24.0337 25.7566 25.8115 24 27.9995 24H40V16H31.3137C29.192 16 27.1571 16.8429 25.6569 18.3431L18.3431 25.6569C16.8429 27.1571 16 29.192 16 31.3137V40Z" fill="url(#paint1_linear_7697_8782)"></path></g>
        <g style="opacity: 1;" id="logotype" transform="translate(46, 1)"><path fill="#ffffff" d="M13.14 33L8.41 33L8.41 8.50L13.14 8.50L13.14 33ZM20.70 33L15.98 33L15.98 15.36L20.14 15.36L20.49 18.23L20.49 18.23Q21.30 16.76 22.78 15.85Q24.27 14.94 26.34 14.94L26.34 14.94Q28.54 14.94 30.05 15.85Q31.55 16.76 32.34 18.51Q33.13 20.26 33.13 22.81L33.13 22.81L33.13 33L28.44 33L28.44 23.27Q28.44 21.17 27.54 20.05Q26.65 18.93 24.80 18.93L24.80 18.93Q23.61 18.93 22.68 19.49Q21.75 20.05 21.23 21.08Q20.70 22.11 20.70 23.59L20.70 23.59L20.70 33ZM41.25 33L36.52 33L36.52 13.78Q36.52 11.58 37.26 10.28Q37.99 8.99 39.37 8.39Q40.76 7.80 42.61 7.80L42.61 7.80L44.78 7.80L44.78 11.82L43.31 11.82Q42.19 11.82 41.72 12.26Q41.25 12.70 41.25 13.78L41.25 13.78L41.25 33ZM45.06 19.31L34.11 19.31L34.11 15.36L45.06 15.36L45.06 19.31ZM51.68 33L46.95 33L46.95 15.36L51.68 15.36L51.68 33ZM49.33 12.94L49.33 12.94Q48.07 12.94 47.25 12.19Q46.43 11.44 46.43 10.28L46.43 10.28Q46.43 9.13 47.25 8.38Q48.07 7.62 49.33 7.62L49.33 7.62Q50.63 7.62 51.45 8.38Q52.27 9.13 52.27 10.28L52.27 10.28Q52.27 11.44 51.45 12.19Q50.63 12.94 49.33 12.94ZM59.31 33L54.58 33L54.58 15.36L58.75 15.36L59.10 18.23L59.10 18.23Q59.90 16.76 61.39 15.85Q62.88 14.94 64.94 14.94L64.94 14.94Q67.15 14.94 68.65 15.85Q70.16 16.76 70.94 18.51Q71.73 20.26 71.73 22.81L71.73 22.81L71.73 33L67.04 33L67.04 23.27Q67.04 21.17 66.15 20.05Q65.26 18.93 63.40 18.93L63.40 18.93Q62.21 18.93 61.28 19.49Q60.36 20.05 59.83 21.08Q59.31 22.11 59.31 23.59L59.31 23.59L59.31 33ZM79.15 33L74.43 33L74.43 15.36L79.15 15.36L79.15 33ZM76.81 12.94L76.81 12.94Q75.55 12.94 74.72 12.19Q73.90 11.44 73.90 10.28L73.90 10.28Q73.90 9.13 74.72 8.38Q75.55 7.62 76.81 7.62L76.81 7.62Q78.10 7.62 78.92 8.38Q79.75 9.13 79.75 10.28L79.75 10.28Q79.75 11.44 78.92 12.19Q78.10 12.94 76.81 12.94ZM93.19 33L90.00 33Q88.15 33 86.76 32.42Q85.38 31.84 84.61 30.50Q83.84 29.15 83.84 26.80L83.84 26.80L83.84 19.31L80.83 19.31L80.83 15.36L83.84 15.36L84.37 10.56L88.57 10.56L88.57 15.36L93.22 15.36L93.22 19.31L88.57 19.31L88.57 26.88Q88.57 28.06 89.09 28.52Q89.62 28.98 90.88 28.98L90.88 28.98L93.19 28.98L93.19 33ZM102.60 40.70L97.60 40.70L101.87 31.04L100.82 31.04L93.75 15.36L98.89 15.36L103.93 26.73L103.93 26.73L108.48 15.36L113.49 15.36L102.60 40.70ZM125.21 33L119.86 33L127.59 20.57L119.75 8.50L125.21 8.50L130.60 16.86L130.60 16.86L135.53 8.50L140.86 8.50L133.19 20.78L141.06 33L135.61 33L130.18 24.49L130.18 24.49L125.21 33Z"></path></g>
        <defs xmlns="http://www.w3.org/2000/svg">
<linearGradient id="paint0_linear_7697_8782" x1="20" y1="-0.997096" x2="20" y2="33.7931" gradientUnits="userSpaceOnUse">
<stop stop-color="#75D8FC"></stop>
<stop offset="1" stop-color="#0072E5"></stop>
</linearGradient>
<linearGradient id="paint1_linear_7697_8782" x1="20" y1="-0.997096" x2="20" y2="33.7931" gradientUnits="userSpaceOnUse">
<stop stop-color="#75D8FC"></stop>
<stop offset="1" stop-color="#0072E5"></stop>
</linearGradient>
</defs>
      </svg>